<?xml version="1.0" encoding="utf-8"?>
<!-- Generator: Adobe Illustrator 21.1.0, SVG Export Plug-In . SVG Version: 6.00 Build 0)  -->
<svg version="1.1" id="Layer_1" xmlns="http://www.w3.org/2000/svg" xmlns:xlink="http://www.w3.org/1999/xlink" x="0px" y="0px"
width="144px" height="72px" viewBox="0 0 144 72" enable-background="new 0 0 144 72" xml:space="preserve">

<style type="text/css">
	.st0{fill:none;stroke:#343434;stroke-width:2;stroke-linecap:round;stroke-linejoin:round;stroke-miterlimit:10;}
	.st1{fill:#282828;}
</style>
<g transform="translate(92, 20)">
	<line class="st0" x1="27" y1="5" x2="5" y2="27"/>
	<line class="st0" x1="27" y1="27" x2="5" y2="5"/>
</g>
<path class="st1" d="M19.6,20.6l4.8,21.1l-1.5,2.7c0,0,0.2,1.5,1.5,1.5h25.6c0,0,2.9-1.7,0-3.2H27.4c0,0,0.6-1.9,0-3.2l26-3.1
	c0,0,1.1-0.5,0.8-2.1l0.1-11.8c0,0-0.1-1.7-1.8-1.9H23l-0.8-1.9c0,0,0.6-1.1-1.7-1.1h-6.1c0,0-2.3,1.3,0,3.1H19.6z"/>
<circle class="st1" cx="27.8" cy="49.8" r="3.2"/>
<circle class="st1" cx="48.8" cy="49.8" r="3.2"/>
</svg>
